<svg xmlns="http://www.w3.org/2000/svg"  viewBox="0 0 16 16" width="16px" height="16px"><path fill="#f2faff" d="M8.069,15.362c-1.243,0-2.471-0.312-3.555-0.903l-0.174-0.096l-3.559,0.934l0.951-3.475 l-0.104-0.181c-0.649-1.125-0.992-2.409-0.991-3.714C0.64,3.832,3.973,0.5,8.068,0.5c1.987,0.001,3.854,0.774,5.257,2.179 c1.402,1.403,2.175,3.27,2.175,5.256C15.498,12.03,12.165,15.362,8.069,15.362z"/><path fill="#788b9c" d="M8.068,1L8.068,1c1.853,0.001,3.594,0.722,4.903,2.032C14.279,4.341,15,6.082,15,7.934 c-0.002,3.821-3.111,6.929-6.934,6.929c-1.157-0.001-2.302-0.292-3.312-0.843l-0.349-0.19L4.022,13.93l-2.529,0.663l0.668-2.438 l0.11-0.403l-0.209-0.362c-0.605-1.048-0.925-2.246-0.925-3.463C1.139,4.108,4.248,1,8.068,1 M8.068,0 C3.697,0,0.139,3.557,0.137,7.928c-0.001,1.397,0.364,2.762,1.059,3.964L0.071,16l4.204-1.102 c1.158,0.632,2.463,0.964,3.79,0.965h0.003c4.371,0,7.929-3.557,7.931-7.928c0-2.118-0.824-4.111-2.322-5.609 C12.181,0.826,10.19,0.001,8.068,0L8.068,0z"/><path fill="#79ba7e" d="M8.067,13.863c-0.99,0-1.97-0.25-2.833-0.721l-0.697-0.38l-0.768,0.201l-0.853,0.224l0.21-0.767	l0.22-0.805l-0.418-0.723C2.41,9.995,2.137,8.97,2.137,7.929C2.139,4.66,4.799,2,8.068,2c1.586,0.001,3.076,0.618,4.196,1.738	C13.383,4.859,14,6.349,14,7.933C13.999,11.203,11.338,13.863,8.067,13.863z"/><path fill="#fff" d="M11.507,9.51c-0.189-0.094-1.115-0.55-1.287-0.613c-0.173-0.063-0.299-0.094-0.424,0.094	C9.669,9.18,9.308,9.604,9.199,9.73S8.979,9.871,8.79,9.777C8.602,9.683,7.994,9.484,7.275,8.842	c-0.56-0.499-0.938-1.116-1.048-1.305c-0.11-0.189-0.012-0.29,0.083-0.384c0.085-0.085,0.189-0.22,0.283-0.33	c0.094-0.11,0.126-0.189,0.189-0.314c0.063-0.126,0.032-0.236-0.016-0.33C6.718,6.084,6.341,5.156,6.184,4.78	C6.031,4.412,5.875,4.462,5.76,4.457C5.65,4.451,5.524,4.45,5.399,4.45c-0.126,0-0.33,0.047-0.502,0.236	c-0.172,0.189-0.66,0.644-0.66,1.571s0.675,1.823,0.769,1.949s1.328,2.028,3.219,2.844c0.449,0.194,0.801,0.31,1.074,0.397	c0.451,0.143,0.862,0.123,1.187,0.074c0.362-0.054,1.115-0.456,1.272-0.896c0.157-0.44,0.157-0.817,0.11-0.896	C11.821,9.652,11.695,9.604,11.507,9.51z"/></svg>