<svg xmlns="http://www.w3.org/2000/svg" viewBox="0 0 11.508 2.471"><path d="M2.216 1.247q0-.093.025-.18.024-.087.07-.162.047-.074.115-.136.068-.062.154-.106.087-.044.192-.068.105-.024.225-.024.078 0 .149.01.07.01.133.026.062.018.116.04.053.022.096.047l-.076.148q-.049-.024-.112-.04t-.13-.016q-.091 0-.169.032-.077.033-.134.093-.056.06-.088.144-.032.085-.032.191 0 .105.032.19.031.085.087.145.056.06.133.093.077.033.167.033v-.442h.513l-.091.166v.357q-.043.026-.106.05-.063.023-.141.042-.078.02-.166.03-.088.012-.18.012-.181 0-.326-.053-.145-.053-.246-.145t-.156-.215q-.054-.123-.054-.262zM4.25.922l-.151-.33h.536l.64 1.31H4.7l-.097-.21h-.516l-.096.21h-.223l.481-.98zm.262.568-.166-.36-.165.36h.33zM5.693.793H5.32V.59h1.255v.202h-.373V1.9h-.51V.793zm1.1.817q.093.047.195.071.102.024.19.024.101 0 .148-.03.048-.028.048-.079 0-.015-.006-.032t-.022-.033q-.017-.016-.045-.033-.029-.016-.075-.032l-.157-.054q-.17-.058-.255-.157-.085-.099-.085-.235 0-.088.037-.17.037-.081.112-.143.075-.062.189-.1.114-.036.267-.036.076 0 .145.009.07.008.13.023.062.014.113.032.051.018.09.035l-.095.172q-.028-.018-.06-.03-.03-.014-.062-.023Q7.564.78 7.534.776T7.479.772q-.042 0-.074.01-.031.012-.053.03t-.033.04q-.01.023-.01.045 0 .019.009.037t.031.035q.023.017.06.035.036.017.09.035l.106.035q.172.058.262.158.091.1.091.243 0 .097-.043.179-.044.082-.13.141-.087.06-.215.092-.128.033-.297.033-.08 0-.156-.008-.075-.008-.147-.025t-.141-.042q-.07-.026-.14-.06l.103-.175zM8.21.592h.692q.146 0 .255.025.11.024.184.07.073.045.11.109.037.064.037.142 0 .078-.044.147-.043.07-.127.12.138.04.205.116.068.077.068.187 0 .076-.036.147-.037.07-.11.125-.072.054-.181.087-.11.033-.256.033h-.797V.592zm.563.532q.072 0 .122-.014.049-.014.078-.037.03-.024.043-.055.012-.03.012-.064T9.017.89Q9.004.859 8.974.835 8.945.812 8.896.798q-.05-.014-.122-.014H8.72v.34h.054zm0 .584q.079 0 .132-.016.054-.017.087-.046.034-.03.049-.068.015-.04.015-.085 0-.04-.016-.077-.016-.038-.047-.067-.031-.03-.077-.048-.046-.018-.106-.018H8.72v.425h.054zm1.357-.177L9.687.592h.557l.323.674.26-.674h.23l-.39.94V1.9h-.536v-.369z" fill="#0e0904"/><g clip-path="url(&quot;#a&quot;)" transform="translate(2.126 .57)"><g clip-path="url(&quot;#b&quot;)"><path d="M-.98.784a1.974 1.974 0 0 0-.245-.096C-1.362.645-1.493.622-1.518.64c-.026.018-.038.06 0 .063.062.003.125.01.186.02.117.018.177.038.177.038s-.19-.033-.3 0c-.111.033-.144.23-.124.346.02.117.104.167.232.172.117.005.258-.007.296-.028.045-.025.053-.103.066-.217l.012-.108s.003.346-.01.411c-.013.066-.031.088.058.068.106-.022.28-.169.306-.242.034-.1-.195-.273-.248-.31A.976.976 0 0 0-.98.783z" fill="#f05b5a"/></g><g clip-path="url(&quot;#b&quot;)"><path d="M-.89.711C-.847.624-.814.507-.871.49-.928.473-.974.53-.974.53S-1.01.49-1.068.501h-.002a.063.063 0 0 0-.042.092c.02.039.053.096.082.124.06.059.096.082.14-.006z" fill="#2e343f"/></g><g clip-path="url(&quot;#b&quot;)"><path d="M-.657.979A.653.653 0 0 0-.664.972C-.691.91-.724.822-.751.776a.468.468 0 0 1-.045-.26.406.406 0 0 0 0-.054C-.78.456-.714.427-.68.322-.642.2-.695.115-.758.125c-.063.01-.048.053-.048.053s.02-.04.053-.018C-.72.183-.72.25-.771.264-.82.279-.859.226-.867.087a.69.69 0 0 0-.02-.148c-.01-.082-.08-.092-.08-.092-.029.002-.087.002-.117.09-.03.09.002.18-.003.286-.005.106-.048.137-.09.096-.043-.04-.013-.083.01-.065a.022.022 0 0 1 .002.035c-.005.004.04-.015.023-.056-.021-.048-.126-.01-.111.094a.17.17 0 0 0 .085.13c-.015.076-.004.2-.004.2s.007-.103.017-.163c.01-.061.03-.081.063-.079.033.003.071.015.084-.017.01-.027.012-.1.012-.127A.044.044 0 0 0-.96.274c0 .018-.002.079 0 .111.002.038.055.028.1.028.046 0 .034.093.039.151.005.058.01.177.045.233.028.047.053.095.076.145A.895.895 0 0 0-.963.789c.195.124.367.298.374.313.015.03.023.048-.02.109a.622.622 0 0 1-.226.188c-.126.068-.254.057-.22.04s.087.004.095-.18c.004-.124 0-.248-.012-.371-.011-.124-.003.087-.01.212-.005.125-.011.232-.043.252-.01.006.01-.055-.081-.053-.082.001-.274.03-.382-.007-.102-.036-.162-.154-.128-.359.03-.18.13-.188.165-.193.102-.014.296.02.296.02s-.051-.02-.19-.047a.965.965 0 0 0-.24-.017c-.032 0-.02-.036-.004-.058.033-.046.203-.006.303.025.104.034.206.074.306.121A1.706 1.706 0 0 0-1.28.635C-1.474.56-1.568.563-1.607.577c-.033.012-.083.076-.096.16-.011.076-.001.117.015.098.012-.014.05-.106.063-.088a1.16 1.16 0 0 1-.025.161c-.019.103-.023.28.068.364.105.095.286.074.362.07.1-.005.158-.01.135.036-.012.022-.103.021-.116.046-.013.024.078.085.254.045.176-.04.324-.193.367-.235.044-.041.07-.032.04.027-.03.059-.129.096-.129.096s.057-.001.14-.066c.084-.064.04-.16-.128-.312zm-.23-.993V-.027v.013zm-.088.268c-.03 0-.05-.03-.062-.063a.057.057 0 0 1 .006-.04c.03-.05.118-.062.14-.152l.001.03c.003.073-.017.222-.085.225z" fill="#2e343f"/></g></g><defs><clipPath id="a"><path d="M-1.708-.153h1.22v1.635h-1.22z"/></clipPath><clipPath id="b"><path d="M-1.708-.153h1.22v1.635h-1.22z"/></clipPath></defs></svg>